<mxfile host="app.diagrams.net" modified="2022-12-23T03:08:35.330Z" agent="5.0 (Windows NT 10.0; Win64; x64) AppleWebKit/537.36 (KHTML, like Gecko) Chrome/108.0.0.0 Safari/537.36" version="20.7.4" etag="c3zYAzeB_dPNSQtXBNkZ" type="github">
  <diagram id="nC2dTSZjqOmywRAlztIN" name="Halaman-1">
    <mxGraphModel dx="1050" dy="573" grid="1" gridSize="10" guides="1" tooltips="1" connect="1" arrows="1" fold="1" page="1" pageScale="1" pageWidth="827" pageHeight="1169" math="0" shadow="0">
      <root>
        <mxCell id="0" />
        <mxCell id="1" parent="0" />
        <mxCell id="tEpYTZyOnDBDKE4M71Yv-1" value="mulai" style="strokeWidth=2;html=1;shape=mxgraph.flowchart.start_1;whiteSpace=wrap;" vertex="1" parent="1">
          <mxGeometry x="350" y="200" width="110" height="60" as="geometry" />
        </mxCell>
        <mxCell id="tEpYTZyOnDBDKE4M71Yv-2" value="&lt;span style=&quot;font-size:12.0pt;line-height:107%;&lt;br/&gt;font-family:&amp;quot;Times New Roman&amp;quot;,serif;mso-fareast-font-family:Calibri;mso-fareast-theme-font:&lt;br/&gt;minor-latin;mso-ansi-language:EN-ID;mso-fareast-language:EN-US;mso-bidi-language:&lt;br/&gt;AR-SA&quot;&gt;Mengidentifikasi data&lt;/span&gt;" style="rounded=1;whiteSpace=wrap;html=1;absoluteArcSize=1;arcSize=14;strokeWidth=2;" vertex="1" parent="1">
          <mxGeometry x="279" y="310" width="270" height="50" as="geometry" />
        </mxCell>
        <mxCell id="tEpYTZyOnDBDKE4M71Yv-3" value="&lt;span style=&quot;font-size:12.0pt;line-height:107%;&lt;br/&gt;font-family:&amp;quot;Times New Roman&amp;quot;,serif;mso-fareast-font-family:Calibri;mso-fareast-theme-font:&lt;br/&gt;minor-latin;mso-ansi-language:EN-ID;mso-fareast-language:EN-US;mso-bidi-language:&lt;br/&gt;AR-SA&quot;&gt;Menghitung distribusi probabilitas&amp;nbsp;&lt;/span&gt;" style="rounded=1;whiteSpace=wrap;html=1;absoluteArcSize=1;arcSize=14;strokeWidth=2;" vertex="1" parent="1">
          <mxGeometry x="270" y="390" width="270" height="50" as="geometry" />
        </mxCell>
        <mxCell id="tEpYTZyOnDBDKE4M71Yv-4" value="" style="endArrow=classic;html=1;rounded=0;entryX=0.5;entryY=0;entryDx=0;entryDy=0;exitX=0.467;exitY=1.052;exitDx=0;exitDy=0;exitPerimeter=0;" edge="1" parent="1" source="tEpYTZyOnDBDKE4M71Yv-2" target="tEpYTZyOnDBDKE4M71Yv-3">
          <mxGeometry width="50" height="50" relative="1" as="geometry">
            <mxPoint x="410" y="370" as="sourcePoint" />
            <mxPoint x="440" y="470" as="targetPoint" />
          </mxGeometry>
        </mxCell>
        <mxCell id="tEpYTZyOnDBDKE4M71Yv-6" value="" style="endArrow=classic;html=1;rounded=0;entryX=0.47;entryY=-0.052;entryDx=0;entryDy=0;entryPerimeter=0;" edge="1" parent="1" source="tEpYTZyOnDBDKE4M71Yv-1" target="tEpYTZyOnDBDKE4M71Yv-2">
          <mxGeometry width="50" height="50" relative="1" as="geometry">
            <mxPoint x="390" y="520" as="sourcePoint" />
            <mxPoint x="440" y="470" as="targetPoint" />
          </mxGeometry>
        </mxCell>
        <mxCell id="tEpYTZyOnDBDKE4M71Yv-7" value="&lt;span style=&quot;font-size:12.0pt;line-height:107%;&lt;br/&gt;font-family:&amp;quot;Times New Roman&amp;quot;,serif;mso-fareast-font-family:Calibri;mso-fareast-theme-font:&lt;br/&gt;minor-latin;mso-ansi-language:EN-ID;mso-fareast-language:EN-US;mso-bidi-language:&lt;br/&gt;AR-SA&quot;&gt;Menghitung distribusi kumulatif&amp;nbsp;&lt;/span&gt;" style="rounded=1;whiteSpace=wrap;html=1;absoluteArcSize=1;arcSize=14;strokeWidth=2;" vertex="1" parent="1">
          <mxGeometry x="270" y="460" width="270" height="50" as="geometry" />
        </mxCell>
        <mxCell id="tEpYTZyOnDBDKE4M71Yv-9" value="" style="endArrow=classic;html=1;rounded=0;exitX=0.5;exitY=1;exitDx=0;exitDy=0;entryX=0.5;entryY=0;entryDx=0;entryDy=0;" edge="1" parent="1" source="tEpYTZyOnDBDKE4M71Yv-3" target="tEpYTZyOnDBDKE4M71Yv-7">
          <mxGeometry width="50" height="50" relative="1" as="geometry">
            <mxPoint x="390" y="520" as="sourcePoint" />
            <mxPoint x="440" y="470" as="targetPoint" />
          </mxGeometry>
        </mxCell>
        <mxCell id="tEpYTZyOnDBDKE4M71Yv-10" value="&lt;span style=&quot;font-size:12.0pt;line-height:107%;&lt;br/&gt;font-family:&amp;quot;Times New Roman&amp;quot;,serif;mso-fareast-font-family:Calibri;mso-fareast-theme-font:&lt;br/&gt;minor-latin;mso-ansi-language:EN-ID;mso-fareast-language:EN-US;mso-bidi-language:&lt;br/&gt;AR-SA&quot;&gt;Menghitung distribusi kumulatif&amp;nbsp;&lt;/span&gt;" style="rounded=1;whiteSpace=wrap;html=1;absoluteArcSize=1;arcSize=14;strokeWidth=2;" vertex="1" parent="1">
          <mxGeometry x="270" y="540" width="270" height="50" as="geometry" />
        </mxCell>
        <mxCell id="tEpYTZyOnDBDKE4M71Yv-11" value="" style="endArrow=classic;html=1;rounded=0;exitX=0.5;exitY=1;exitDx=0;exitDy=0;entryX=0.5;entryY=0;entryDx=0;entryDy=0;" edge="1" parent="1" source="tEpYTZyOnDBDKE4M71Yv-7" target="tEpYTZyOnDBDKE4M71Yv-10">
          <mxGeometry width="50" height="50" relative="1" as="geometry">
            <mxPoint x="390" y="620" as="sourcePoint" />
            <mxPoint x="440" y="570" as="targetPoint" />
          </mxGeometry>
        </mxCell>
        <mxCell id="tEpYTZyOnDBDKE4M71Yv-12" value="Menentukan interval bilangan acak" style="rounded=1;whiteSpace=wrap;html=1;absoluteArcSize=1;arcSize=14;strokeWidth=2;" vertex="1" parent="1">
          <mxGeometry x="270" y="620" width="270" height="50" as="geometry" />
        </mxCell>
        <mxCell id="tEpYTZyOnDBDKE4M71Yv-13" value="" style="endArrow=classic;html=1;rounded=0;exitX=0.5;exitY=1;exitDx=0;exitDy=0;entryX=0.5;entryY=0;entryDx=0;entryDy=0;" edge="1" parent="1" source="tEpYTZyOnDBDKE4M71Yv-10" target="tEpYTZyOnDBDKE4M71Yv-12">
          <mxGeometry width="50" height="50" relative="1" as="geometry">
            <mxPoint x="390" y="620" as="sourcePoint" />
            <mxPoint x="440" y="570" as="targetPoint" />
          </mxGeometry>
        </mxCell>
        <mxCell id="tEpYTZyOnDBDKE4M71Yv-14" value="Proses&amp;nbsp;Simulasi Monte Carlo &amp;nbsp;" style="rounded=1;whiteSpace=wrap;html=1;absoluteArcSize=1;arcSize=14;strokeWidth=2;" vertex="1" parent="1">
          <mxGeometry x="270" y="700" width="270" height="50" as="geometry" />
        </mxCell>
        <mxCell id="tEpYTZyOnDBDKE4M71Yv-15" value="" style="endArrow=classic;html=1;rounded=0;exitX=0.5;exitY=1;exitDx=0;exitDy=0;entryX=0.5;entryY=0;entryDx=0;entryDy=0;" edge="1" parent="1" source="tEpYTZyOnDBDKE4M71Yv-12" target="tEpYTZyOnDBDKE4M71Yv-14">
          <mxGeometry width="50" height="50" relative="1" as="geometry">
            <mxPoint x="390" y="720" as="sourcePoint" />
            <mxPoint x="440" y="670" as="targetPoint" />
          </mxGeometry>
        </mxCell>
        <mxCell id="tEpYTZyOnDBDKE4M71Yv-16" value="" style="endArrow=classic;html=1;rounded=0;exitX=0.5;exitY=1;exitDx=0;exitDy=0;startArrow=none;" edge="1" parent="1" source="tEpYTZyOnDBDKE4M71Yv-17">
          <mxGeometry width="50" height="50" relative="1" as="geometry">
            <mxPoint x="390" y="720" as="sourcePoint" />
            <mxPoint x="405" y="830" as="targetPoint" />
          </mxGeometry>
        </mxCell>
        <mxCell id="tEpYTZyOnDBDKE4M71Yv-17" value="Proses&amp;nbsp;Simulasi Monte Carlo &amp;nbsp;" style="rounded=1;whiteSpace=wrap;html=1;absoluteArcSize=1;arcSize=14;strokeWidth=2;" vertex="1" parent="1">
          <mxGeometry x="270" y="780" width="270" height="50" as="geometry" />
        </mxCell>
        <mxCell id="tEpYTZyOnDBDKE4M71Yv-18" value="" style="endArrow=none;html=1;rounded=0;exitX=0.5;exitY=1;exitDx=0;exitDy=0;" edge="1" parent="1" source="tEpYTZyOnDBDKE4M71Yv-14" target="tEpYTZyOnDBDKE4M71Yv-17">
          <mxGeometry width="50" height="50" relative="1" as="geometry">
            <mxPoint x="405" y="750" as="sourcePoint" />
            <mxPoint x="405" y="830" as="targetPoint" />
          </mxGeometry>
        </mxCell>
        <mxCell id="tEpYTZyOnDBDKE4M71Yv-19" style="edgeStyle=orthogonalEdgeStyle;rounded=0;orthogonalLoop=1;jettySize=auto;html=1;exitX=0.5;exitY=0;exitDx=0;exitDy=0;entryX=0.467;entryY=-0.004;entryDx=0;entryDy=0;entryPerimeter=0;" edge="1" parent="1" source="tEpYTZyOnDBDKE4M71Yv-2" target="tEpYTZyOnDBDKE4M71Yv-2">
          <mxGeometry relative="1" as="geometry" />
        </mxCell>
        <mxCell id="tEpYTZyOnDBDKE4M71Yv-20" value="Hasil simulasi Monte Carlo" style="rounded=1;whiteSpace=wrap;html=1;absoluteArcSize=1;arcSize=14;strokeWidth=2;" vertex="1" parent="1">
          <mxGeometry x="270" y="860" width="270" height="50" as="geometry" />
        </mxCell>
        <mxCell id="tEpYTZyOnDBDKE4M71Yv-21" value="" style="endArrow=classic;html=1;rounded=0;exitX=0.5;exitY=1;exitDx=0;exitDy=0;" edge="1" parent="1" source="tEpYTZyOnDBDKE4M71Yv-17" target="tEpYTZyOnDBDKE4M71Yv-20">
          <mxGeometry width="50" height="50" relative="1" as="geometry">
            <mxPoint x="390" y="820" as="sourcePoint" />
            <mxPoint x="440" y="770" as="targetPoint" />
          </mxGeometry>
        </mxCell>
        <mxCell id="tEpYTZyOnDBDKE4M71Yv-22" value="Selesai" style="strokeWidth=2;html=1;shape=mxgraph.flowchart.start_1;whiteSpace=wrap;" vertex="1" parent="1">
          <mxGeometry x="350" y="940" width="110" height="60" as="geometry" />
        </mxCell>
        <mxCell id="tEpYTZyOnDBDKE4M71Yv-23" value="" style="endArrow=classic;html=1;rounded=0;exitX=0.5;exitY=1;exitDx=0;exitDy=0;" edge="1" parent="1" source="tEpYTZyOnDBDKE4M71Yv-20" target="tEpYTZyOnDBDKE4M71Yv-22">
          <mxGeometry width="50" height="50" relative="1" as="geometry">
            <mxPoint x="390" y="820" as="sourcePoint" />
            <mxPoint x="440" y="770" as="targetPoint" />
          </mxGeometry>
        </mxCell>
      </root>
    </mxGraphModel>
  </diagram>
</mxfile>
